<mxfile host="www.draw.io" modified="2019-11-14T09:48:57.098Z" agent="Mozilla/5.0 (Macintosh; Intel Mac OS X 10_14_6) AppleWebKit/537.36 (KHTML, like Gecko) Chrome/78.0.3904.97 Safari/537.36" etag="NIeofbURnpMvKnlr53S1" version="12.2.6" type="github" pages="1">
  <diagram id="_wt22XUmdaHYK0ZygdDY" name="Page-1">
    <mxGraphModel dx="1186" dy="715" grid="1" gridSize="10" guides="1" tooltips="1" connect="1" arrows="1" fold="1" page="1" pageScale="1" pageWidth="827" pageHeight="1169" math="0" shadow="0">
      <root>
        <mxCell id="0"/>
        <mxCell id="1" parent="0"/>
        <mxCell id="lLmX2Nu7Ph-TMZXF2AXc-2" style="edgeStyle=orthogonalEdgeStyle;rounded=0;orthogonalLoop=1;jettySize=auto;html=1;" parent="1" source="lLmX2Nu7Ph-TMZXF2AXc-1" edge="1">
          <mxGeometry relative="1" as="geometry">
            <mxPoint x="380" y="330" as="targetPoint"/>
          </mxGeometry>
        </mxCell>
        <mxCell id="lLmX2Nu7Ph-TMZXF2AXc-1" value="" style="rounded=1;whiteSpace=wrap;html=1;" parent="1" vertex="1">
          <mxGeometry x="320" y="180" width="120" height="60" as="geometry"/>
        </mxCell>
      </root>
    </mxGraphModel>
  </diagram>
</mxfile>
